<svg xmlns="http://www.w3.org/2000/svg" viewBox="0 0 58 58">
    <ellipse cx="20" cy="44" fill="#a2783b" rx="26" ry="18" transform="rotate(-15)"/>
    <g transform="scale(.7)">
        <path fill="#faf5e5"
              d="M42.8 48.5c1.8.3 3.8.1 5.9-.4 4.6-1.4 8-5 8.6-9 .3-2.1-.2-4-1.1-5.7-.8-1.2-.7-2.6 0-3.8 1.2-1.6 1.8-3.4 1.8-5.4 0-4.2-3-8.1-7.4-10-2.1-.8-3.7-2.4-4.3-4.4C45 5.7 42 3.8 37.8 3c-3.8-.5-7.2.7-9 3.1-1.1 1.4-3.4 2-5.7 1.4a19 19 0 0 0-4.3-.5C12.4 7 6.9 10.3 6 15c-.3 1.6 0 3.2.6 4.7 1.1 2.5 0 5.2-2.5 7.1C1.6 28.8 0 31.3 0 34c0 3.3 5.3 6 9.8 7.5 3.5 1.2 5.6 3.5 6 6.2 1 4.5 5.8 7.5 11.6 7.3 4.6-.2 8.6-2.2 11-4.9a5 5 0 0 1 4.4-1.6z"/>
        <circle cx="36.5" cy="29.5" r="12.5" fill="#f8b600"/>
        <ellipse cx="40" cy="34" fill="#f79b21" rx="8" ry="5" transform="rotate(-34 41 34)"/>
    </g>
</svg>
