<svg xmlns="http://www.w3.org/2000/svg" viewBox="0 0 64 64">
    <g transform="scale(.12) translate(10 45)">
        <path fill="#EABF75" d="M15.5,163.5v245.2c0,11.6,9.4,21,21,21h447.6c6.9,0,12.4-5.6,12.4-12.4V163.5H15.5z"/>
        <rect x="15.5" y="163.5" fill="#040000" opacity="0.1" width="481" height="38.1"/>
        <path fill="#EABF75" d="M437.3,1.8c-1.2-1.2-2.8-1.8-4.5-1.8H79.1c-1.7,0-3.3,0.6-4.5,1.8L0,73.6v92.8c0,4.4,3.6,8,8,8h496   c4.4,0,8-3.6,8-8V73.6L437.3,1.8z"/>
        <path fill="#040000" opacity="0.1" d="M512,73.6H0L74.7,1.8C75.9,0.6,77.5,0,79.1,0h353.7c1.7,0,3.3,0.6,4.5,1.8L512,73.6z"/>

        <text fill="white" x="52" y="340" font-size="100">あせまな</text>
    </g>
</svg>
